<svg width="24" height="24" viewBox="0 0 24 24" fill="none" xmlns="http://www.w3.org/2000/svg">
<path fill-rule="evenodd" clip-rule="evenodd" d="M11.7542 5.1275L11.5693 5.25L11.3527 5.8555L11.1362 6.46117L10.5208 7.1055L9.90567 7.75L9.17233 8.4335L8.439 9.117L7.48298 9.213L6.52682 9.30883L6.44317 9.17333L6.35932 9.03783L6.62148 8.82017L6.88383 8.6025L7.34333 7.92633L7.80283 7.25L7.98683 6.70933L8.171 6.16866L7.836 5.9895L7.501 5.81016L7.28183 5.99217L7.0625 6.17417L6.9645 6.62867L6.8665 7.08333L6.48617 7.5625L6.10567 8.0415L5.4595 8.77083L4.81317 9.5L4.04283 9.50633L3.27233 9.51267L2.18899 9.97883L1.10566 10.4452L1.05283 10.8902L1 11.3352L1.23199 11.4242L1.46383 11.5132L2.26682 11.169L3.07 10.8248L5.002 10.5408L5.55383 10.4388L6.10567 10.3367L7.757 10.1668L9.40833 9.997L9.48717 10.0758L9.566 10.1547L9.25833 10.7857L8.95048 11.4167L8.92217 12.75L8.89383 14.0833L9.03567 14.4573L9.1775 14.8312L9.69717 15.1472L10.2167 15.4632L10.0778 15.5438L9.939 15.6245L7.57083 15.07L5.2025 14.5155L4.72267 14.2673L4.24267 14.0192L3.297 12.9978L2.35133 11.9763L2.06183 12.0313L1.77233 12.0862L1.73733 12.5015L1.70249 12.9167L2.85917 13.9167L4.01598 14.9167L3.6095 15.6545L3.50767 15.9755L3.74215 16.5368L3.97667 17.0982L4.77283 17.799L5.569 18.4997L6.2205 18.6752L6.872 18.8507L7.19717 18.7473L7.52233 18.6442V18.4118V18.1795L6.814 17.9928L6.10567 17.8062L5.41467 17.1353L4.72348 16.4645L4.62365 15.9652L4.52382 15.4658L4.62117 15.3082L4.71867 15.1505L4.92367 15.3207L5.12882 15.4908L6.239 15.7483L7.34917 16.0058L7.769 16.1655L8.189 16.325V17.0817V17.8382L8.75948 18.4608L9.33 19.0833H10.0845H10.839L11.0543 18.868L11.2695 18.6528L11.021 18.4957L10.7723 18.3385L10.4067 18.3358L10.041 18.3333L9.61483 17.9583L9.18867 17.5833L9.08282 17.0325L8.977 16.4817L10.6738 16.5985L12.3705 16.7153L13.1548 17.5218L13.939 18.3282L14.489 18.3307L15.0388 18.3333L15.536 18.0762L16.0332 17.8192L15.9343 17.6592L15.8355 17.4993L15.1718 17.6053L14.5082 17.7115L14.0987 17.3267L13.689 16.9418V16.721V16.5H14.1985H14.708L15.4425 16.315L16.1768 16.1302L17.0357 16.8815L17.8945 17.6328L18.3937 17.7327L18.893 17.8325L19.6243 17.509L20.3557 17.1853V16.9148V16.6442L20.064 16.7298L19.7723 16.8155L19.1845 16.9193L18.5968 17.0232L17.81 16.3865L17.0232 15.75L17.3978 15.6063L17.7723 15.4628L18.431 15.1385L19.0898 14.8142L19.3857 15.1987L19.6817 15.5833L19.6853 15.6882L19.689 15.7928L20.186 15.9988L20.683 16.2047L20.936 16.1075L21.189 16.0105V15.771V15.5317L20.439 15.0922L19.689 14.6527V14.5133V14.3742L19.9633 14.1453L20.2375 13.9167L20.614 13.75L20.9905 13.5833L21.673 12.9588L22.3557 12.3342V12.2782V12.222L21.439 11.5907L20.5223 10.9593V10.9042V10.849L21.064 10.5865L21.6057 10.324L22.2187 9.754L22.8318 9.18417L22.8853 8.8045L22.939 8.42483L22.6672 8.37067L22.3953 8.3165L21.6163 8.99067L20.8375 9.66483L20.4298 9.76717L20.0223 9.8695L20.0198 9.97633L20.0172 10.0833L19.8762 10.3057L19.7353 10.5282L18.7058 10.0085L17.6763 9.48883L17.7758 9.32767L17.8753 9.16667H18.0835H18.2917L18.782 8.484L19.2723 7.80133L19.7307 7.25367L20.189 6.706V6.59117V6.47616L19.913 6.20016L19.637 5.92417L19.1213 6.57467L18.6057 7.225L17.9265 7.90417L17.2473 8.58333L16.7642 8.979L16.281 9.3745L15.2282 9.27633L14.1753 9.178L14.0062 9.07333L13.8368 8.96867L14.6878 8.026L15.5387 7.08333L16.0305 6.54634L16.5223 6.0095V5.7725V5.53566L16.2603 5.43516L15.9982 5.3345L15.6963 5.496L15.3947 5.6575L14.3505 6.9805L13.3065 8.30333L12.956 8.46267L12.6057 8.62217L11.8117 8.811L11.0175 9H10.52H10.0223L10.0258 8.875L10.0295 8.75L10.6761 8.29267L11.323 7.83517L11.8458 7.046L12.3685 6.25683L12.4633 5.87883L12.5583 5.50067L12.4621 5.25033L12.3662 5L12.1525 5.0025L11.939 5.00517L11.7542 5.1275ZM13.4107 10.5257L13.5047 10.8848L13.3193 11.6875L13.134 12.4903L12.6631 12.9413L12.1925 13.3923L12.1085 13.3083L12.0245 13.2243L12.4257 12.2005L12.827 11.1767L12.9378 10.6717L13.0488 10.1667H13.1828H13.3168L13.4107 10.5257ZM17.2883 10.5862L18.1377 10.8017L19.0002 11.2388L19.8627 11.6758L20.3905 11.9968L20.9183 12.3178L20.479 12.4848L20.0398 12.6518L19.3863 13.2422L18.7327 13.8327L17.2525 14.487L15.7723 15.1413L14.689 15.3228L13.6057 15.5042L13.0476 15.596L12.4895 15.688L12.9983 15.0523L13.5072 14.4167L13.8535 13.6302L14.2 12.8437L14.3942 11.5115L14.5883 10.1793L15.5137 10.275L16.439 10.3705L17.2883 10.5862Z" fill="black"/>
</svg>
