<svg width="100" height="40" viewBox="0 0 100 40" fill="none" xmlns="http://www.w3.org/2000/svg">
<path d="M24.8932 11.732C24.9544 11.732 25.0463 11.7474 25.1687 11.7781C25.3065 11.7935 25.4366 11.8165 25.5591 11.8473C25.7122 11.878 25.873 11.9087 26.0414 11.9395C26.3475 12.0624 26.6231 12.17 26.868 12.2622C27.113 12.3391 27.4115 12.3775 27.7636 12.3775C28.0851 12.3775 28.2994 12.439 28.4066 12.562C28.5291 12.6849 28.5903 12.9232 28.5903 13.2767C28.5903 13.4457 28.5291 13.5994 28.4066 13.7378C28.2841 13.8607 28.1387 13.9683 27.9703 14.0605C27.8019 14.1527 27.6105 14.2296 27.3962 14.2911C27.1972 14.3372 27.0211 14.3602 26.868 14.3602C26.4853 14.4063 26.1255 14.5677 25.7888 14.8444C25.452 15.1057 25.1305 15.4207 24.8243 15.7896C24.5181 16.1585 24.2119 16.5427 23.9057 16.9424C23.5996 17.342 23.2857 17.7032 22.9642 18.0259V18.6484C22.9642 18.7714 22.9949 18.902 23.0561 19.0403C23.1326 19.1633 23.2168 19.3016 23.3087 19.4553C23.4159 19.609 23.5154 19.7704 23.6072 19.9395C23.7144 20.0932 23.7986 20.2469 23.8598 20.4006C23.9517 20.6158 24.0971 20.8694 24.2961 21.1614C24.4951 21.4534 24.6942 21.707 24.8932 21.9222C25.0463 22.0913 25.184 22.2988 25.3065 22.5447C25.4443 22.7752 25.5821 23.0058 25.7199 23.2363C25.873 23.4515 26.049 23.6282 26.248 23.7666C26.4623 23.8895 26.7303 23.9203 27.0517 23.8588H27.9473C28.2229 23.9203 28.4449 24.0202 28.6133 24.1585C28.7817 24.2815 28.9118 24.4275 29.0036 24.5965C29.0955 24.7502 29.1567 24.9193 29.1873 25.1037C29.218 25.2728 29.2333 25.4342 29.2333 25.5879V26.0951C29.2333 26.1873 29.1491 26.2719 28.9807 26.3487C28.8123 26.4409 28.6822 26.487 28.5903 26.487C28.4678 26.487 28.376 26.464 28.3147 26.4179C28.2535 26.3718 28.1846 26.318 28.1081 26.2565C28.0468 26.195 27.9703 26.1258 27.8784 26.049C27.7866 25.9721 27.6641 25.903 27.511 25.8415H26.6614C26.493 25.8876 26.3322 25.9337 26.1791 25.9798C25.9036 26.0567 25.6816 26.0951 25.5132 26.0951L24.6865 25.8415H24.2502C24.143 25.8415 23.9976 25.7954 23.8139 25.7032C23.6455 25.6263 23.5154 25.5879 23.4235 25.5879C23.301 25.5572 23.1633 25.5495 23.0102 25.5648C22.8571 25.5802 22.7116 25.5879 22.5739 25.5879C22.4361 25.5879 22.3136 25.5648 22.2064 25.5187C22.1146 25.4726 22.0687 25.365 22.0687 25.196C22.0687 24.9039 22.1299 24.7118 22.2524 24.6196C22.3902 24.5274 22.5432 24.4659 22.7116 24.4352C22.8341 24.3583 22.9489 24.2738 23.0561 24.1816C23.1633 24.0893 23.2168 23.9126 23.2168 23.6513C23.2168 23.5437 23.1862 23.4515 23.125 23.3746C23.0791 23.2824 23.0178 23.1902 22.9413 23.098C22.88 23.0058 22.8112 22.9059 22.7346 22.7983C22.6734 22.6753 22.6274 22.537 22.5968 22.3833C22.5203 22.2757 22.4361 22.1374 22.3442 21.9683C22.2677 21.7839 22.1682 21.6071 22.0457 21.438C21.9385 21.269 21.8161 21.1306 21.6783 21.0231C21.5405 20.9001 21.3951 20.8386 21.242 20.8386C21.1501 20.8386 21.043 20.8924 20.9205 21C20.8133 21.0922 20.7062 21.2536 20.599 21.4841C20.4459 21.7147 20.2699 21.9299 20.0708 22.1297C19.8718 22.3141 19.6805 22.5139 19.4968 22.7291C19.3284 22.9289 19.1829 23.1441 19.0605 23.3746C18.938 23.5898 18.8767 23.8357 18.8767 24.1124C18.8767 24.2815 18.9227 24.4352 19.0145 24.5735C19.1064 24.6964 19.2059 24.8194 19.3131 24.9424C19.4355 25.05 19.5427 25.1422 19.6345 25.219C19.7264 25.3112 19.7723 25.3881 19.7723 25.4496C19.7723 25.5264 19.7187 25.5648 19.6116 25.5648C19.5044 25.5802 19.3896 25.5879 19.2671 25.5879H14.9959C14.751 25.5418 14.5366 25.488 14.3529 25.4265C14.1845 25.365 14.0314 25.2805 13.8937 25.1729C13.7712 25.0653 13.71 24.927 13.71 24.7579C13.71 24.6503 13.7635 24.5427 13.8707 24.4352C13.9932 24.3122 14.1233 24.2123 14.2611 24.1354C14.4142 24.0586 14.5596 23.9971 14.6974 23.951C14.8505 23.8895 14.95 23.8588 14.9959 23.8588H16.0752C16.2742 23.8588 16.4656 23.7819 16.6493 23.6282C16.8483 23.4592 17.032 23.2671 17.2004 23.0519C17.3841 22.8213 17.5602 22.5908 17.7286 22.3602C17.897 22.1143 18.0654 21.9068 18.2338 21.7378C18.4328 21.3842 18.6471 21.0922 18.8767 20.8617C19.1064 20.6158 19.3207 20.3314 19.5197 20.0086C19.6422 19.8857 19.7187 19.7704 19.7494 19.6628C19.7953 19.5399 19.8718 19.44 19.979 19.3631V18.8559C19.979 18.7637 19.9331 18.633 19.8412 18.464C19.7494 18.2949 19.6422 18.1258 19.5197 17.9568C19.3972 17.7723 19.2748 17.611 19.1523 17.4726C19.0298 17.3343 18.938 17.2421 18.8767 17.196C18.6624 16.9654 18.517 16.7502 18.4404 16.5504C18.3639 16.3353 18.2108 16.1585 17.9812 16.0202C17.874 15.928 17.7745 15.8127 17.6826 15.6744C17.6061 15.5207 17.5219 15.3746 17.43 15.2363C17.3382 15.0826 17.231 14.9443 17.1086 14.8213C17.0014 14.6984 16.8713 14.6138 16.7182 14.5677C16.5498 14.5216 16.3814 14.4909 16.213 14.4755C16.0599 14.4601 15.8915 14.4448 15.7078 14.4294C15.5394 14.414 15.3557 14.391 15.1567 14.3602C14.973 14.3141 14.7663 14.2296 14.5366 14.1066C14.3223 14.0144 14.131 13.8684 13.9626 13.6686C13.7942 13.4688 13.71 13.2767 13.71 13.0922C13.71 12.8309 13.7865 12.6465 13.9396 12.5389C14.0927 12.4313 14.2305 12.3775 14.3529 12.3775H14.7892C14.8964 12.4697 15.0342 12.5235 15.2026 12.5389C15.3863 12.5543 15.5317 12.562 15.6389 12.562H18.2338C18.2797 12.562 18.3562 12.5543 18.4634 12.5389C18.5859 12.5235 18.7083 12.5005 18.8308 12.4697C18.9686 12.439 19.114 12.4083 19.2671 12.3775H20.4153C20.5072 12.3775 20.6756 12.3468 20.9205 12.2853C21.1654 12.2238 21.3338 12.1931 21.4257 12.1931L22.3213 12.3775H22.7116C22.7729 12.3314 22.903 12.2776 23.102 12.2161C23.301 12.1393 23.5154 12.0701 23.745 12.0086C23.9746 11.9318 24.1966 11.8703 24.4109 11.8242C24.6406 11.7627 24.8013 11.732 24.8932 11.732ZM22.3213 12.8156C22.0763 12.9539 21.8467 13.0845 21.6324 13.2075C21.4487 13.3305 21.2573 13.4534 21.0583 13.5764C20.8746 13.684 20.7215 13.7992 20.599 13.9222C20.3847 14.0144 20.3005 14.122 20.3464 14.245C20.3923 14.3525 20.4153 14.4601 20.4153 14.5677C20.4153 14.6138 20.4536 14.7752 20.5301 15.0519C20.6067 15.3285 20.7062 15.6282 20.8286 15.951C20.9664 16.2738 21.1195 16.5658 21.2879 16.8271C21.4716 17.073 21.6706 17.196 21.885 17.196C21.9921 17.196 22.1605 17.0576 22.3902 16.781C22.6351 16.5043 22.88 16.1892 23.125 15.8357C23.3699 15.4669 23.5843 15.121 23.768 14.7983C23.9517 14.4601 24.0435 14.2296 24.0435 14.1066L23.8598 13.9222C23.7986 13.8761 23.6914 13.7915 23.5383 13.6686C23.4005 13.5456 23.2475 13.4227 23.0791 13.2997C22.926 13.1614 22.7729 13.0461 22.6198 12.9539C22.482 12.8617 22.3825 12.8156 22.3213 12.8156Z" fill="black"/>
<path d="M34.4237 14.1066C34.684 14.1066 34.8983 14.2065 35.0667 14.4063C35.2351 14.5908 35.3193 14.7906 35.3193 15.0058L35.1126 15.6513C35.2045 15.7435 35.2657 15.8742 35.2963 16.0432C35.3116 16.1201 35.3193 16.2046 35.3193 16.2968C35.3193 16.6042 35.281 16.8886 35.2045 17.1499C35.1432 17.4111 35.1126 17.7032 35.1126 18.0259V18.2104C35.1126 18.2872 35.105 18.3794 35.0897 18.487C35.0743 18.5793 35.0514 18.6715 35.0208 18.7637C34.9901 18.8713 34.9595 18.9866 34.9289 19.1095V19.3631C34.9289 19.5322 34.8983 19.6705 34.8371 19.7781C34.7911 19.8857 34.7375 20.024 34.6763 20.1931C34.6457 20.316 34.5921 20.4467 34.5156 20.585C34.4543 20.708 34.4237 20.854 34.4237 21.0231C34.4237 21.0845 34.439 21.1691 34.4696 21.2767C34.5003 21.3689 34.5462 21.4688 34.6074 21.5764C34.6687 21.6686 34.7375 21.7531 34.8141 21.83C34.9059 21.8915 35.0055 21.9222 35.1126 21.9222C35.2351 21.9222 35.3423 21.8838 35.4341 21.8069C35.5413 21.7301 35.6255 21.6455 35.6867 21.5533C35.7633 21.4765 35.8398 21.415 35.9163 21.3689C36.0082 21.3074 36.1077 21.2767 36.2149 21.2767H36.6512C36.743 21.2767 36.7966 21.3228 36.8119 21.415C36.8272 21.5072 36.8349 21.6148 36.8349 21.7378C36.8349 21.7839 36.766 21.8761 36.6282 22.0144C36.4904 22.1527 36.3373 22.3064 36.1689 22.4755C36.0005 22.6292 35.8321 22.7829 35.6637 22.9366C35.4953 23.0749 35.3805 23.1671 35.3193 23.2133C35.2734 23.3208 35.1739 23.5053 35.0208 23.7666C34.8677 24.0279 34.6993 24.2968 34.5156 24.5735C34.3319 24.8348 34.1328 25.0653 33.9185 25.2651C33.7195 25.4803 33.5434 25.5879 33.3904 25.5879C33.2832 25.5879 33.1607 25.5495 33.0229 25.4726C32.9005 25.4111 32.7857 25.3189 32.6785 25.196C32.5713 25.0884 32.4795 24.9731 32.4029 24.8501C32.3417 24.7272 32.3111 24.6042 32.3111 24.4813V24.1124C32.3111 23.9894 32.3034 23.8818 32.2881 23.7896C32.2728 23.6974 32.2192 23.6513 32.1274 23.6513V23.2133L32.3111 22.5677V21.4841C32.3111 21.2536 32.3417 21.0692 32.4029 20.9308C32.4642 20.7925 32.4948 20.6158 32.4948 20.4006V20.1931C32.4948 20.0855 32.5254 19.9318 32.5866 19.732C32.6632 19.5322 32.7397 19.317 32.8163 19.0865C32.8928 18.8559 32.9617 18.633 33.0229 18.4179C33.0995 18.1873 33.1378 17.9875 33.1378 17.8184C33.1378 17.6955 33.0842 17.5648 32.977 17.4265C32.8852 17.2728 32.7244 17.196 32.4948 17.196C32.4029 17.196 32.3187 17.2267 32.2422 17.2882C32.1809 17.3497 31.9896 17.3804 31.6681 17.3804C31.6375 17.365 31.6069 17.3266 31.5762 17.2651C31.515 17.1729 31.4844 17.0576 31.4844 16.9193V16.5504C31.4844 16.4121 31.6145 16.2123 31.8748 15.951C32.1503 15.6744 32.4565 15.4054 32.7933 15.1441C33.1454 14.8674 33.4822 14.6292 33.8037 14.4294C34.1252 14.2142 34.3319 14.1066 34.4237 14.1066Z" fill="black"/>
<path d="M42.7223 14.4986C42.8907 14.4986 43.0208 14.5524 43.1127 14.6599C43.2045 14.7675 43.2887 14.8828 43.3653 15.0058C43.4112 15.1134 43.4265 15.2594 43.4112 15.4438C43.3959 15.6282 43.3653 15.8127 43.3194 15.9971C43.2887 16.1816 43.2505 16.3583 43.2045 16.5274C43.1739 16.6964 43.1586 16.8117 43.1586 16.8732L43.2275 17.2421L43.4801 17.7032C43.5413 17.7032 43.6562 17.6186 43.8246 17.4496C44.0083 17.2651 44.2149 17.0423 44.4446 16.781C44.6895 16.5197 44.9421 16.243 45.2024 15.951C45.4626 15.6436 45.7152 15.3593 45.9602 15.098C46.2051 14.8367 46.4271 14.6215 46.6261 14.4524C46.8251 14.268 46.9706 14.1758 47.0624 14.1758C47.1849 14.1758 47.2844 14.2526 47.3609 14.4063C47.4528 14.56 47.537 14.7214 47.6135 14.8905C47.6901 15.0903 47.759 15.3208 47.8202 15.5821C47.8355 15.7973 47.8202 16.097 47.7743 16.4813C47.7283 16.8655 47.6518 17.2882 47.5446 17.7493C47.4528 18.195 47.3456 18.6561 47.2232 19.1326C47.116 19.5937 47.0088 20.024 46.9017 20.4236C46.8098 20.8079 46.7256 21.1306 46.6491 21.3919C46.5878 21.6532 46.5572 21.7915 46.5572 21.8069C46.5572 21.8684 46.5496 21.9452 46.5342 22.0375C46.5189 22.1143 46.5113 22.1912 46.5113 22.268C46.5113 22.3295 46.5266 22.3833 46.5572 22.4294C46.6031 22.4755 46.6873 22.4986 46.8098 22.4986C46.9017 22.4371 46.9935 22.3756 47.0854 22.3141C47.1619 22.2526 47.2461 22.1912 47.338 22.1297C47.4298 22.0682 47.5293 21.999 47.6365 21.9222C47.8967 21.7531 48.134 21.5994 48.3484 21.4611C48.578 21.3074 48.7234 21.2305 48.7847 21.2305C48.8765 21.2305 48.976 21.2843 49.0832 21.3919C49.1904 21.4841 49.2439 21.5764 49.2439 21.6686C49.2439 21.6993 49.1904 21.7839 49.0832 21.9222C48.9913 22.0605 48.8765 22.2065 48.7387 22.3602C48.601 22.5139 48.4632 22.6523 48.3254 22.7752C48.1876 22.8982 48.0881 22.9597 48.0269 22.9597C48.0269 23.0826 47.9809 23.1979 47.8891 23.3055C47.8125 23.4131 47.7283 23.4669 47.6365 23.4669C47.3915 23.7281 47.1849 23.9817 47.0165 24.2277C46.8481 24.4736 46.6797 24.7041 46.5113 24.9193C46.3429 25.1191 46.1592 25.2805 45.9602 25.4035C45.7611 25.5264 45.5085 25.5879 45.2024 25.5879C45.0952 25.5879 44.9804 25.5495 44.8579 25.4726C44.7507 25.3958 44.6512 25.3036 44.5594 25.196C44.4675 25.073 44.391 24.9501 44.3298 24.8271C44.2838 24.6888 44.2609 24.5735 44.2609 24.4813L44.192 23.6513C44.2838 23.2363 44.3986 22.7906 44.5364 22.3141C44.6895 21.8377 44.8273 21.3919 44.9498 20.9769C45.0722 20.6234 45.1717 20.2853 45.2483 19.9625C45.3248 19.6398 45.3784 19.3324 45.409 19.0403V18.7867C45.3478 18.3564 45.1947 18.1412 44.9498 18.1412C44.5824 18.1412 44.2915 18.2257 44.0772 18.3948C43.8628 18.5485 43.6868 18.756 43.549 19.0173C43.4112 19.2632 43.2887 19.5322 43.1816 19.8242C43.0897 20.1162 42.9826 20.3929 42.8601 20.6542C42.7835 20.7464 42.73 20.8386 42.6993 20.9308C42.684 21.0077 42.6917 21.1076 42.7223 21.2305C42.6917 21.415 42.6534 21.5994 42.6075 21.7839C42.5769 21.9683 42.5309 22.1451 42.4697 22.3141C42.3013 22.806 42.1406 23.2978 41.9875 23.7896C41.8344 24.2661 41.6966 24.7118 41.5741 25.1268C41.6507 25.2498 41.6354 25.3189 41.5282 25.3343C41.4364 25.365 41.3445 25.3804 41.2526 25.3804C41.1608 25.3804 41.0307 25.3727 40.8623 25.3573C40.6939 25.3573 40.5255 25.3343 40.3571 25.2882C40.204 25.2421 40.0585 25.1729 39.9208 25.0807C39.7983 24.9885 39.7294 24.8578 39.7141 24.6888C39.6835 24.4275 39.7141 24.1585 39.8059 23.8818C39.8978 23.5898 39.9973 23.3208 40.1045 23.0749C40.2269 22.829 40.3418 22.6138 40.4489 22.4294C40.5561 22.245 40.6097 22.122 40.6097 22.0605V21.2305L40.4949 20.8386C40.4949 20.7464 40.5255 20.6311 40.5867 20.4928C40.6479 20.3391 40.7092 20.1931 40.7704 20.0548C40.847 19.9011 40.9158 19.7627 40.9771 19.6398C41.0383 19.5168 41.0689 19.4246 41.0689 19.3631V19.0403L41 18.1412C41 18.049 40.9847 17.9568 40.9541 17.8646C40.9388 17.757 40.8699 17.7032 40.7475 17.7032C40.6556 17.7032 40.5484 17.7262 40.426 17.7723C40.3188 17.8184 40.204 17.8722 40.0815 17.9337C39.9743 17.9798 39.8672 18.0259 39.76 18.072C39.6682 18.1182 39.5916 18.1412 39.5304 18.1412H39.3467C39.2395 18.0797 39.2089 17.9645 39.2548 17.7954C39.3161 17.611 39.3467 17.4726 39.3467 17.3804C39.7294 16.8425 40.0968 16.3737 40.4489 15.9741C40.8163 15.5591 41.2526 15.1902 41.7578 14.8674C41.865 14.806 42.0104 14.7291 42.1942 14.6369C42.3779 14.5447 42.5539 14.4986 42.7223 14.4986Z" fill="black"/>
<path d="M58.3091 14.0375C58.6306 14.0375 58.8602 14.1297 58.998 14.3141C59.1358 14.4986 59.2047 14.7522 59.2047 15.0749C59.2047 15.1364 59.1817 15.2747 59.1358 15.4899C59.0899 15.6897 59.0286 15.9203 58.9521 16.1816C58.8909 16.4275 58.822 16.6811 58.7454 16.9424C58.6689 17.2037 58.6076 17.4111 58.5617 17.5648C58.5617 17.6878 58.5541 17.8184 58.5388 17.9568C58.5234 18.0797 58.4699 18.2488 58.378 18.464C58.2555 18.5562 58.1943 18.7099 58.1943 18.9251C58.1943 19.1249 58.1943 19.2709 58.1943 19.3631L58.1254 20.585V21.4841C58.1254 21.5303 58.1254 21.6148 58.1254 21.7378C58.1407 21.8453 58.156 21.9606 58.1713 22.0836C58.202 22.1912 58.2479 22.2911 58.3091 22.3833C58.3704 22.4601 58.4546 22.4986 58.5617 22.4986L58.8832 21.9914C58.9751 21.9145 59.0822 21.8223 59.2047 21.7147C59.3272 21.5917 59.4496 21.4765 59.5721 21.3689C59.7099 21.2459 59.8477 21.1153 59.9855 20.9769C60.0773 20.9769 60.1539 21.0154 60.2151 21.0922C60.2763 21.1691 60.3069 21.2536 60.3069 21.3458L60.2151 21.5303C60.1539 21.6532 60.0926 21.7454 60.0314 21.8069C59.9242 22.1143 59.7864 22.3833 59.618 22.6138C59.4496 22.829 59.2659 23.0442 59.0669 23.2594C58.8679 23.4592 58.6612 23.6667 58.4469 23.8818C58.2479 24.097 58.0565 24.3429 57.8728 24.6196L57.3676 25.3343C57.3676 25.4726 57.3217 25.611 57.2298 25.7493C57.1533 25.903 57.0538 26.0183 56.9313 26.0951C56.8242 26.1873 56.7017 26.2257 56.5639 26.2104C56.4414 26.2104 56.3419 26.1258 56.2654 25.9568C56.1735 25.6801 56.1276 25.4111 56.1276 25.1499C56.1276 24.8732 56.1506 24.6119 56.1965 24.366C56.2424 24.1047 56.2883 23.8588 56.3343 23.6282C56.3802 23.3977 56.4032 23.1748 56.4032 22.9597V21.6686C56.4032 21.5917 56.3496 21.5379 56.2424 21.5072C56.1812 21.4918 56.1276 21.4841 56.0817 21.4841C56.0357 21.4841 55.9209 21.6225 55.7372 21.8991C55.5535 22.1604 55.3392 22.4678 55.0942 22.8213C54.8646 23.1595 54.6273 23.5053 54.3824 23.8588C54.1374 24.2123 53.9384 24.4659 53.7853 24.6196C53.7394 24.6811 53.6628 24.7733 53.5557 24.8963C53.4638 25.0038 53.3567 25.1114 53.2342 25.219C53.127 25.3266 53.0046 25.4188 52.8668 25.4957C52.729 25.5879 52.6065 25.634 52.4994 25.634C52.285 25.634 52.109 25.5572 51.9712 25.4035C51.8334 25.2498 51.7263 25.073 51.6497 24.8732C51.5732 24.658 51.5119 24.4505 51.466 24.2507C51.4354 24.0355 51.4201 23.8818 51.4201 23.7896L51.3512 22.1297L51.6727 19.4323C51.6727 19.3862 51.6956 19.2786 51.7416 19.1095C51.7875 18.9404 51.8487 18.756 51.9253 18.5562C52.0018 18.3564 52.086 18.1643 52.1779 17.9798C52.285 17.78 52.3922 17.6186 52.4994 17.4957C52.9433 17.0807 53.372 16.5735 53.7853 15.9741C53.9843 15.6974 54.1757 15.4976 54.3594 15.3746C54.5431 15.2517 54.7268 15.1595 54.9105 15.098C55.0942 15.0211 55.2779 14.9673 55.4617 14.9366C55.6454 14.8905 55.852 14.806 56.0817 14.683C56.1735 14.683 56.2883 14.6369 56.4261 14.5447C56.5792 14.4371 56.717 14.3372 56.8395 14.245H57.8728L58.3091 14.0375ZM55.3698 16.5965C55.0942 16.8271 54.834 17.0961 54.589 17.4035C54.3441 17.6955 54.1298 17.9952 53.9461 18.3026C53.7624 18.61 53.6169 18.902 53.5098 19.1787C53.4026 19.44 53.349 19.6475 53.349 19.8012C53.349 19.878 53.3414 20.024 53.326 20.2392C53.3107 20.439 53.3184 20.6542 53.349 20.8847C53.3796 21.0999 53.4332 21.2997 53.5098 21.4841C53.6016 21.6532 53.7547 21.7378 53.969 21.7378C54.168 21.7378 54.3977 21.561 54.6579 21.2075C54.9335 20.854 55.1861 20.4544 55.4157 20.0086C55.6607 19.5629 55.8597 19.1479 56.0128 18.7637C56.1812 18.3794 56.2654 18.1489 56.2654 18.072C56.2654 18.0106 56.273 17.8646 56.2883 17.634C56.3036 17.3881 56.2883 17.1575 56.2424 16.9424C56.2118 16.7118 56.1276 16.5504 55.9898 16.4582C55.8673 16.3506 55.6607 16.3967 55.3698 16.5965Z" fill="black"/>
<path d="M70.3951 5C70.839 5 71.1146 5.13833 71.2218 5.41499C71.3442 5.69164 71.4055 6.00672 71.4055 6.36023V6.79827C71.4055 7.01345 71.3366 7.244 71.1988 7.48991C71.061 7.73583 70.8926 7.96638 70.6936 8.18156C70.4946 8.38136 70.2803 8.55812 70.0506 8.71182C69.8363 8.85014 69.6526 8.91931 69.4995 8.91931C69.3005 8.91931 69.1321 8.88857 68.9943 8.82709C68.8565 8.76561 68.7264 8.73487 68.6039 8.73487C68.2824 8.73487 67.9456 8.83477 67.5935 9.03458C67.2567 9.23439 67.0424 9.55716 66.9506 10.0029C66.8281 10.2334 66.7668 10.4409 66.7668 10.6254C66.7822 10.7944 66.7592 10.9712 66.698 11.1556C66.5602 11.4784 66.4147 11.9011 66.2617 12.4236C66.1239 12.9308 66.055 13.4073 66.055 13.853C66.055 13.8991 66.0397 13.976 66.0091 14.0836C65.9937 14.1912 65.9708 14.3064 65.9402 14.4294C65.9095 14.5677 65.8789 14.7137 65.8483 14.8674V15.5821L65.5268 17.4496C65.5574 17.6647 65.5498 17.9183 65.5039 18.2104C65.4732 18.487 65.4197 18.8098 65.3431 19.1787C65.2666 19.5476 65.19 19.9472 65.1135 20.3775C65.0369 20.8079 64.9833 21.2613 64.9527 21.7378C64.9527 21.83 64.968 21.9837 64.9987 22.1988C65.0446 22.3987 65.1211 22.4986 65.2283 22.4986C65.3661 22.4986 65.5115 22.4524 65.6646 22.3602C65.833 22.268 65.9937 22.1527 66.1468 22.0144C66.2999 21.8761 66.453 21.7301 66.6061 21.5764C66.7745 21.4227 66.9276 21.2843 67.0654 21.1614C67.3562 20.8694 67.6548 20.6081 67.9609 20.3775C68.2671 20.1316 68.5657 20.0086 68.8565 20.0086L68.9943 20.1931C68.9943 20.3622 68.9484 20.562 68.8565 20.7925C68.7647 21.0077 68.6498 21.2305 68.5121 21.4611C68.3743 21.6916 68.2212 21.9068 68.0528 22.1066C67.8844 22.3064 67.7237 22.4601 67.5706 22.5677C67.2644 22.7829 67.0118 23.0442 66.8128 23.3516C66.6291 23.659 66.3765 23.9741 66.055 24.2968C65.9478 24.5274 65.7794 24.7195 65.5498 24.8732C65.3355 25.0115 65.1211 25.1422 64.9068 25.2651C64.6772 25.3573 64.394 25.4726 64.0572 25.611C63.7357 25.7647 63.4601 25.8415 63.2305 25.8415C63.0621 25.8415 62.9396 25.8108 62.8631 25.7493C62.8018 25.7032 62.7635 25.6263 62.7482 25.5187C62.7329 25.4111 62.7329 25.2728 62.7482 25.1037C62.7789 24.9347 62.7942 24.7272 62.7942 24.4813V23.0058C62.7942 22.7906 62.8324 22.5754 62.909 22.3602C63.0008 22.1451 63.0468 21.9376 63.0468 21.7378V21.2767C63.0468 21.3996 63.0621 21.3458 63.0927 21.1153C63.1233 20.8694 63.1616 20.5159 63.2075 20.0548C63.2534 19.5783 63.2917 19.0173 63.3223 18.3718C63.3529 17.7262 63.3683 17.05 63.3683 16.3429C63.3683 16.2507 63.4065 16.1201 63.4831 15.951C63.5749 15.7666 63.6208 15.6206 63.6208 15.513V14.683C63.7127 14.2373 63.7816 13.7992 63.8275 13.3689C63.8734 12.9385 63.9194 12.5159 63.9653 12.1009C64.0112 11.6859 64.0725 11.2709 64.149 10.8559C64.2256 10.4256 64.348 9.9952 64.5164 9.56484C64.6389 9.14986 64.8379 8.75024 65.1135 8.36599C65.389 7.98175 65.634 7.56676 65.8483 7.12104C65.9555 6.92123 66.0703 6.73679 66.1928 6.56772C66.3305 6.39865 66.4989 6.26033 66.698 6.15274C66.9123 5.79923 67.2032 5.52257 67.5706 5.32277C67.9533 5.10759 68.3207 5 68.6728 5H70.3951Z" fill="black"/>
<path d="M74.0292 14.1066C74.2895 14.1066 74.5038 14.2065 74.6722 14.4063C74.8406 14.5908 74.9248 14.7906 74.9248 15.0058L74.7181 15.6513C74.81 15.7435 74.8712 15.8742 74.9018 16.0432C74.9171 16.1201 74.9248 16.2046 74.9248 16.2968C74.9248 16.6042 74.8865 16.8886 74.81 17.1499C74.7487 17.4111 74.7181 17.7032 74.7181 18.0259V18.2104C74.7181 18.2872 74.7105 18.3794 74.6952 18.487C74.6798 18.5793 74.6569 18.6715 74.6263 18.7637C74.5956 18.8713 74.565 18.9866 74.5344 19.1095V19.3631C74.5344 19.5322 74.5038 19.6705 74.4426 19.7781C74.3966 19.8857 74.3431 20.024 74.2818 20.1931C74.2512 20.316 74.1976 20.4467 74.1211 20.585C74.0598 20.708 74.0292 20.854 74.0292 21.0231C74.0292 21.0845 74.0445 21.1691 74.0751 21.2767C74.1058 21.3689 74.1517 21.4688 74.2129 21.5764C74.2742 21.6686 74.3431 21.7531 74.4196 21.83C74.5115 21.8915 74.611 21.9222 74.7181 21.9222C74.8406 21.9222 74.9478 21.8838 75.0396 21.8069C75.1468 21.7301 75.231 21.6455 75.2922 21.5533C75.3688 21.4765 75.4453 21.415 75.5218 21.3689C75.6137 21.3074 75.7132 21.2767 75.8204 21.2767H76.2567C76.3485 21.2767 76.4021 21.3228 76.4174 21.415C76.4327 21.5072 76.4404 21.6148 76.4404 21.7378C76.4404 21.7839 76.3715 21.8761 76.2337 22.0144C76.0959 22.1527 75.9428 22.3064 75.7744 22.4755C75.606 22.6292 75.4376 22.7829 75.2692 22.9366C75.1008 23.0749 74.986 23.1671 74.9248 23.2133C74.8789 23.3208 74.7794 23.5053 74.6263 23.7666C74.4732 24.0279 74.3048 24.2968 74.1211 24.5735C73.9374 24.8348 73.7383 25.0653 73.524 25.2651C73.325 25.4803 73.1489 25.5879 72.9959 25.5879C72.8887 25.5879 72.7662 25.5495 72.6284 25.4726C72.506 25.4111 72.3912 25.3189 72.284 25.196C72.1768 25.0884 72.085 24.9731 72.0084 24.8501C71.9472 24.7272 71.9166 24.6042 71.9166 24.4813V24.1124C71.9166 23.9894 71.9089 23.8818 71.8936 23.7896C71.8783 23.6974 71.8247 23.6513 71.7329 23.6513V23.2133L71.9166 22.5677V21.4841C71.9166 21.2536 71.9472 21.0692 72.0084 20.9308C72.0697 20.7925 72.1003 20.6158 72.1003 20.4006V20.1931C72.1003 20.0855 72.1309 19.9318 72.1921 19.732C72.2687 19.5322 72.3452 19.317 72.4218 19.0865C72.4983 18.8559 72.5672 18.633 72.6284 18.4179C72.705 18.1873 72.7433 17.9875 72.7433 17.8184C72.7433 17.6955 72.6897 17.5648 72.5825 17.4265C72.4907 17.2728 72.3299 17.196 72.1003 17.196C72.0084 17.196 71.9242 17.2267 71.8477 17.2882C71.7864 17.3497 71.5951 17.3804 71.2736 17.3804C71.243 17.365 71.2124 17.3266 71.1817 17.2651C71.1205 17.1729 71.0899 17.0576 71.0899 16.9193V16.5504C71.0899 16.4121 71.22 16.2123 71.4803 15.951C71.7558 15.6744 72.062 15.4054 72.3988 15.1441C72.7509 14.8674 73.0877 14.6292 73.4092 14.4294C73.7307 14.2142 73.9374 14.1066 74.0292 14.1066Z" fill="black"/>
<path d="M85.2671 14.3602C85.3131 14.3602 85.3896 14.4063 85.4968 14.4986C85.6039 14.5754 85.7188 14.6676 85.8412 14.7752C85.979 14.8982 86.1244 15.0365 86.2775 15.1902V15.4438L86.0938 16.7349V16.9193C86.0938 17.0884 86.0632 17.2805 86.002 17.4957C85.9407 17.7109 85.8642 17.926 85.7723 18.1412C85.7111 18.341 85.6422 18.5562 85.5657 18.7867C85.4891 19.0019 85.4508 19.194 85.4508 19.3631V19.5476L85.2671 21.0922L85.0834 22.245L85.0145 22.8905L84.8079 23.2824V23.9741C84.7773 24.0817 84.716 24.2277 84.6242 24.4121C84.5476 24.5812 84.5093 24.7118 84.5093 24.804V25.2651C84.5093 25.3112 84.4787 25.4496 84.4175 25.6801C84.3716 25.926 84.3103 26.1873 84.2338 26.464C84.1725 26.756 84.1113 27.0403 84.0501 27.317C83.9888 27.5937 83.9506 27.7858 83.9353 27.8934L83.8664 28.5389C83.8664 28.7233 83.8281 28.9769 83.7515 29.2997C83.6903 29.6225 83.6444 30.0067 83.6138 30.4524L83.476 31.536L83.3612 32.2507C83.3612 32.4966 83.3688 32.6734 83.3841 32.781C83.3994 32.9039 83.4071 32.9962 83.4071 33.0576C83.4224 33.1345 83.4377 33.2036 83.453 33.2651C83.4683 33.342 83.476 33.4496 83.476 33.5879C83.476 33.7723 83.5143 33.8953 83.5908 33.9568C83.6827 34.0183 83.7898 34.0567 83.9123 34.072C84.0348 34.1028 84.1649 34.1335 84.3027 34.1643C84.4558 34.195 84.6012 34.2565 84.739 34.3487C84.8768 34.4409 84.9916 34.5869 85.0834 34.7867C85.1753 35.0019 85.2365 35.3093 85.2671 35.7089C85.2671 35.8319 85.2212 35.9011 85.1294 35.9164C85.0528 35.9472 84.9456 35.9625 84.8079 35.9625C84.716 35.9625 84.5706 35.8934 84.3716 35.755C84.1725 35.6321 83.9582 35.5706 83.7286 35.5706C83.5908 35.586 83.4301 35.5937 83.2463 35.5937C83.0779 35.609 82.9095 35.6167 82.7411 35.6167C82.5881 35.6321 82.4426 35.6398 82.3048 35.6398C82.1671 35.6398 82.0676 35.6398 82.0063 35.6398C81.9145 35.6551 81.8073 35.7166 81.6848 35.8242C81.5624 35.9318 81.4246 36.0394 81.2715 36.147C81.1184 36.2699 80.95 36.3852 80.7663 36.4928C80.5826 36.6004 80.3836 36.6619 80.1692 36.6772H79.71C79.6181 36.6772 79.465 36.7233 79.2507 36.8156C79.0517 36.9078 78.845 36.9693 78.6307 37H78.2403C77.9801 37 77.7275 36.9155 77.4825 36.7464C77.2223 36.5773 77.0921 36.3775 77.0921 36.147C77.0768 35.9472 77.1151 35.7627 77.207 35.5937C77.2988 35.4246 77.4213 35.2786 77.5744 35.1556C77.7122 35.048 77.8652 34.9635 78.0336 34.902C78.2174 34.8405 78.3934 34.8098 78.5618 34.8098H78.9981C79.1512 34.7944 79.3426 34.7483 79.5722 34.6715C79.8018 34.5946 80.0238 34.487 80.2381 34.3487C80.4525 34.2257 80.6362 34.0797 80.7893 33.9107C80.9424 33.7416 81.0265 33.5495 81.0419 33.3343V32.6888C81.0419 32.6273 81.0572 32.5197 81.0878 32.366C81.1184 32.2277 81.1567 32.0817 81.2026 31.928C81.2485 31.7589 81.3021 31.5668 81.3633 31.3516C81.3787 30.9827 81.3787 30.7522 81.3633 30.6599C81.348 30.5677 81.3327 30.5216 81.3174 30.5216C81.3021 30.5216 81.2945 30.5293 81.2945 30.5447C81.2945 30.56 81.3174 30.4832 81.3633 30.3141C81.394 30.0989 81.4552 29.9222 81.5471 29.7839C81.6389 29.6455 81.6848 29.4611 81.6848 29.2305C81.6848 28.9078 81.7461 28.585 81.8685 28.2622C81.991 27.9549 82.0982 27.6398 82.19 27.317C82.19 27.2709 82.2053 27.1864 82.236 27.0634C82.2666 26.9404 82.3048 26.8098 82.3508 26.6715C82.3967 26.5485 82.435 26.4256 82.4656 26.3026C82.4962 26.1796 82.5115 26.0874 82.5115 26.0259V25.7723C82.5115 25.6801 82.5345 25.5264 82.5804 25.3112C82.6416 25.0961 82.7029 24.8732 82.7641 24.6427C82.8407 24.4121 82.9019 24.2046 82.9478 24.0202C83.0091 23.8204 83.0397 23.6974 83.0397 23.6513L83.0856 22.9597C83.0856 22.9135 83.0933 22.8444 83.1086 22.7522C83.1392 22.6599 83.1621 22.5677 83.1775 22.4755C83.2081 22.3833 83.2157 22.3064 83.2004 22.245C83.1851 22.1681 83.1468 22.1297 83.0856 22.1297C83.0397 22.1297 82.9325 22.2219 82.7641 22.4063C82.5957 22.5754 82.3967 22.7983 82.1671 23.0749C81.9374 23.3516 81.6848 23.6436 81.4093 23.951C81.1337 24.2584 80.8735 24.5504 80.6285 24.8271C80.3836 25.1037 80.1616 25.3266 79.9626 25.4957C79.7789 25.6801 79.6487 25.7723 79.5722 25.7723C79.3119 25.7723 79.0976 25.6571 78.9292 25.4265C78.7761 25.196 78.6536 24.9347 78.5618 24.6427C78.4699 24.3353 78.4011 24.0279 78.3551 23.7205C78.3245 23.4131 78.3092 23.1748 78.3092 23.0058V22.3833C78.4317 22.1527 78.5082 21.8915 78.5388 21.5994C78.5848 21.3074 78.6537 21.0538 78.7455 20.8386C78.9751 20.316 79.266 19.7397 79.6181 19.1095C79.9702 18.4793 80.2764 17.8415 80.5367 17.196C80.5673 17.0423 80.6362 16.8732 80.7433 16.6888C80.8658 16.5043 81.0036 16.3276 81.1567 16.1585C81.3098 15.9894 81.4629 15.8434 81.6159 15.7205C81.769 15.5821 81.8992 15.4899 82.0063 15.4438C82.0982 15.4438 82.2053 15.4054 82.3278 15.3285C82.4503 15.2363 82.5574 15.1902 82.6493 15.1902C82.7411 15.098 82.8866 15.0442 83.0856 15.0288C83.2846 15.0134 83.4148 15.0058 83.476 15.0058C83.6597 14.9443 83.7975 14.8751 83.8893 14.7983C83.9965 14.7214 84.0807 14.6523 84.1419 14.5908C84.2185 14.5293 84.2874 14.4755 84.3486 14.4294C84.4251 14.3833 84.517 14.3602 84.6242 14.3602H85.2671ZM83.1545 17.2421L82.4656 17.634C82.2819 17.634 82.0982 17.7185 81.9145 17.8876C81.7461 18.0413 81.5777 18.2411 81.4093 18.487C81.2409 18.7329 81.0878 19.0096 80.95 19.317C80.8275 19.6244 80.7127 19.9241 80.6055 20.2161C80.4984 20.4928 80.4142 20.7464 80.353 20.9769C80.307 21.2075 80.2841 21.3766 80.2841 21.4841V22.3833C80.3147 22.5062 80.3606 22.6138 80.4218 22.7061C80.4525 22.7829 80.4907 22.8521 80.5367 22.9135C80.5979 22.975 80.6438 23.0058 80.6744 23.0058C80.7357 23.0058 80.8888 22.8751 81.1337 22.6138C81.394 22.3372 81.6772 22.0144 81.9834 21.6455C82.2895 21.2767 82.5804 20.9078 82.856 20.5389C83.1468 20.1547 83.3535 19.8473 83.476 19.6167C83.476 19.5706 83.4913 19.4553 83.5219 19.2709C83.5678 19.0865 83.6138 18.8866 83.6597 18.6715C83.7209 18.4409 83.7669 18.2334 83.7975 18.049C83.8434 17.8646 83.8664 17.7493 83.8664 17.7032C83.8664 17.5956 83.8434 17.4957 83.7975 17.4035C83.7669 17.2959 83.6367 17.2421 83.4071 17.2421H83.1545Z" fill="black"/>
</svg>
