<svg width="24" height="24" viewBox="0 0 24 24" fill="none" xmlns="http://www.w3.org/2000/svg">
<path fill-rule="evenodd" clip-rule="evenodd" d="M11.0214 2.13238L10.1217 2.23571L8.9808 2.74574L7.83985 3.25566L6.45204 4.33194L5.06422 5.40821L4.69459 5.8056L4.32497 6.20299L3.91051 6.82209L3.49592 7.44119L3.24798 8.09892L3.00004 8.75664L2.7714 9.41437L2.5426 10.0721L2.52893 11.6865L2.51526 13.3009L2.69377 13.8391L2.87243 14.3772L3.34294 16.0427L3.81329 17.7082L4.03935 18.0524L4.26526 18.3963L4.59903 18.716L4.93266 19.0357L5.54034 19.4966L6.14804 19.9577L6.71714 20.2481L7.28625 20.5383L8.1604 20.9121L9.03457 21.2856L10.25 21.633L11.4654 21.9802L12.073 21.9901L12.6807 22L13.7788 21.6994L14.8769 21.3988L15.6019 21.0653L16.3269 20.7319L17.6247 19.707L18.9227 18.6823L19.6522 17.6817L20.3814 16.6813L20.8292 15.8958L21.2768 15.1104L21.5907 14.1573L21.9046 13.2042L21.8014 11.2793L21.6982 9.35457L21.4646 8.57725L21.231 7.79994L20.389 6.5144L19.5469 5.22884H19.4426H19.3382L19.1565 4.91492L18.9748 4.60101L18.4203 4.06824L17.8655 3.5355L17.2481 3.20387L16.6307 2.87238L15.795 2.62831L14.9593 2.38435L13.6562 2.19218L12.3532 2L12.1372 2.01459L11.9211 2.02918L11.0214 2.13238ZM14.8076 3.09649L15.7951 3.40682L16.7826 3.71715L17.497 4.29044L18.2114 4.86374L18.7664 5.54681L19.3215 6.22977L19.9165 7.18801L20.5113 8.14626L20.6517 8.9298L20.7921 9.71333L20.8884 11.5804L20.9849 13.4476L20.5206 14.5386L20.0562 15.6298L19.6531 16.2591L19.2501 16.8885L18.6113 17.6658L17.9725 18.4432L16.8165 19.34L15.6605 20.2369L14.4745 20.7118L13.2884 21.1866L12.073 21.1902L10.8577 21.1936L9.94611 20.9032L9.03457 20.6128L7.80324 19.9803L6.5719 19.3476L5.6713 18.5899L4.77071 17.8321L4.57275 17.1809L4.3748 16.5298L4.02659 15.3339L3.67853 14.138L3.49 13.2989L3.30146 12.4596L3.36664 11.1463L3.43196 9.83292L3.70876 9.11539L3.98572 8.39788L4.32604 7.66325L4.66634 6.92876L5.58775 5.97577L6.5093 5.02292L7.41569 4.37846L8.32205 3.734L9.39251 3.28029L10.4628 2.8267L11.1161 2.72541L11.7692 2.62412L11.9638 2.61109L12.1586 2.59793L14.8076 3.09649ZM13.0605 5.07649L12.6807 5.12707L11.91 5.29986L11.1395 5.47267L10.6764 5.85893L10.2135 6.24531L10.1222 6.63159L10.0309 7.01797L10.3446 7.15011L10.6585 7.28226L10.9859 7.04763L11.3134 6.81289L11.9041 6.66388L12.4946 6.51487L13.2024 6.58089L13.9102 6.64689L14.321 6.79411L14.7317 6.94144V7.25153V7.5615L14.4345 8.37969L14.1372 9.19779L13.6617 9.78113L13.1862 10.3645L12.6397 10.7421L12.0934 11.1197L11.7792 11.4928L11.465 11.8659L11.2133 12.2844L10.9616 12.703L10.7261 13.1813L10.4906 13.6597L10.3106 14.1617L10.1305 14.6637L10.3227 15.0287L10.5148 15.3937H10.5623H10.61L10.9997 15.2771L11.3894 15.1605V14.9283V14.696L11.7026 14.1208L12.0159 13.5455L12.7644 12.5847L13.5128 11.624L14.6258 10.8305L15.7388 10.0371L16.3159 9.09794L16.8931 8.1587L16.9692 7.72508L17.0455 7.29159L16.6233 6.7086L16.2012 6.12574L15.8082 5.78623L15.4153 5.44661L15.0355 5.29461L14.6557 5.14249L14.048 5.08426L13.4403 5.02602L13.0605 5.07649ZM10.6824 16.1138L10.365 16.2887L10.2643 16.7849L10.1635 17.2811L10.3386 17.447L10.5136 17.613H11.0336H11.5536L11.9264 17.3194L12.2994 17.026V16.7215V16.4171L11.9956 16.178L11.6917 15.9388H11.3458H10.9997L10.6824 16.1138Z" fill="black"/>
</svg>
